<svg xmlns="http://www.w3.org/2000/svg" width="512.859" height="480.038" viewBox="0 0 512.859 480.038"><g transform="translate(0.43 -15.962)"><path d="M256,496V91c0-4.713,1.435-12.277-.6-16.61-1.706-3.627-8.018-5.5-11.4-7.132C233.216,62.041,222.12,57.447,211,53,162.81,33.726,113.3,23.85,62,17.715,48.356,16.083,34.74,16,21,16c-6.289,0-12.781-.743-17.467,4.33C-2.246,26.586,0,38.143,0,46V408c0,7.448-1.955,17.729,3.533,23.671C8.607,437.163,18.048,436.989,25,437a329.946,329.946,0,0,1,44,2.576c42.117,5.736,83.17,14.7,123,29.848,13.57,5.163,26.88,11.16,40,17.357C239.781,490.456,247.183,495.793,256,496Z" fill="#f2f6fc"/><path d="M256,496c8.525-.2,15.446-5.223,23-8.691,14.536-6.675,29.023-13.236,44-18.885,38.894-14.671,78.921-23.253,120-28.848A329.945,329.945,0,0,1,487,437c6.952-.011,16.393.163,21.467-5.329C513.955,425.729,512,415.448,512,408V46c0-7.857,2.246-19.414-3.533-25.67C504,15.491,498.026,16,492,16c-10.746,0-21.308.475-32,.961-51.874,2.355-103.475,15.414-152,33.358-12.886,4.765-25.518,10.259-38,15.99-3.8,1.742-11.508,4.068-13.4,8.082-2.038,4.333-.6,11.9-.6,16.61V496Z" fill="#dce1eb"/><path d="M61,273c51.725,4.082,100.885,16.992,150,33V137c0-5.588.592-12.089-2.728-16.957C204.3,114.215,195.3,111.824,189,109.424c-15.486-5.9-31.043-11.342-47-15.845A417.9,417.9,0,0,0,87,81.87c-8.085-1.137-16.177-3.651-22.431,3.459C60.556,89.891,61,96.34,61,102V273Z" fill="#60d9d4"/><path d="M78.667,80.333c-.444.444.611.389.667.333C79.778,80.222,78.722,80.278,78.667,80.333Z" fill="#9ee5e5"/><path d="M80.667,80.333c-.444.444.611.389.667.333C81.778,80.222,80.722,80.278,80.667,80.333Z" fill="#cbeef2"/><path d="M430.667,80.333c-.445.444.611.389.666.333C431.778,80.222,430.722,80.278,430.667,80.333Z" fill="#eb83ae"/><path d="M432.667,80.333c-.445.444.611.389.666.333C433.778,80.222,432.722,80.278,432.667,80.333Z" fill="#f53e82"/><path d="M434,80.443A406.208,406.208,0,0,0,335,105c-9.028,3.525-25.332,6.719-31.005,15.091C299.043,127.4,301,138.638,301,147v42c0,7.21-.709,14.841.185,22,.986,7.892,6.621,13.907,14.815,13.92,11.182.018,24.235-6.5,35-9.5a532.284,532.284,0,0,1,65-13.7c9.468-1.394,27.08-.34,32.431-9.771C452.992,183.919,451,171.872,451,163c0-22.272,2.242-45.867-.174-68C449.868,86.215,443.163,79.371,434,80.443Z" fill="#ff0059"/><path d="M439,80l1,1Z" fill="#ee70a2"/><path d="M84,81a7.1,7.1,0,0,0,3,1A7.1,7.1,0,0,0,84,81Z" fill="#92e3e2"/><path d="M423,81a7.093,7.093,0,0,0,3,1A7.093,7.093,0,0,0,423,81Z" fill="#e894b9"/><path d="M426.667,81.333c-.445.444.611.389.666.333C427.778,81.222,426.722,81.278,426.667,81.333Z" fill="#f82c76"/><path d="M442,81l1,1Z" fill="#eb80ac"/><path d="M91,82a7.1,7.1,0,0,0,3,1A7.1,7.1,0,0,0,91,82Z" fill="#9de5e5"/><path d="M417.667,82.333c-.445.444.611.389.666.333C418.778,82.222,417.722,82.278,417.667,82.333Z" fill="#eb83ad"/><path d="M419.667,82.333c-.445.444.611.389.666.333C420.778,82.222,419.722,82.278,419.667,82.333Z" fill="#f63d81"/><path d="M444,82l1,1Z" fill="#e6a3c2"/><path d="M66,83l1,1Z" fill="#a7e7e8"/><path d="M97.667,83.333c-.444.444.611.389.667.333C98.778,83.222,97.722,83.278,97.667,83.333Z" fill="#a9e7e8"/><path d="M412,83a7.093,7.093,0,0,0,3,1A7.093,7.093,0,0,0,412,83Z" fill="#ed72a3"/><path d="M445,83l1,1Z" fill="#ee6da0"/><path d="M102.667,84.333c-.445.444.611.389.666.333C103.778,84.222,102.722,84.278,102.667,84.333Z" fill="#a2e6e7"/><path d="M407,84a7.093,7.093,0,0,0,3,1A7.093,7.093,0,0,0,407,84Z" fill="#ef659b"/><path d="M446,84l1,1Z" fill="#f15892"/><path d="M107,85a7.093,7.093,0,0,0,3,1A7.093,7.093,0,0,0,107,85Z" fill="#9be4e4"/><path d="M402.667,85.333c-.445.444.611.389.666.333C403.778,85.222,402.722,85.278,402.667,85.333Z" fill="#f15a93"/><path d="M447,85l1,1Z" fill="#ee6c9e"/><path d="M112,86a7.093,7.093,0,0,0,3,1A7.093,7.093,0,0,0,112,86Z" fill="#9fe5e6"/><path d="M397.667,86.333c-.445.444.611.389.666.333C398.778,86.222,397.722,86.278,397.667,86.333Z" fill="#ee6b9f"/><path d="M448,86l1,1Z" fill="#e6a0c1"/><path d="M117.667,87.333c-.445.444.611.389.666.333C118.778,87.222,117.722,87.278,117.667,87.333Z" fill="#b8ebec"/><path d="M393.667,87.333c-.445.444.611.389.666.333C394.778,87.222,393.722,87.278,393.667,87.333Z" fill="#f25490"/><path d="M121.667,88.333c-.445.444.611.389.666.333C122.778,88.222,121.722,88.278,121.667,88.333Z" fill="#a9e7e8"/><path d="M388,88a7.093,7.093,0,0,0,3,1A7.093,7.093,0,0,0,388,88Z" fill="#ed71a2"/><path d="M449,88l1,1Z" fill="#ec77a6"/><path d="M126.667,89.333c-.445.444.611.389.666.333C127.778,89.222,126.722,89.278,126.667,89.333Z" fill="#c6eef0"/><path d="M384.667,89.333c-.445.445.611.389.666.333C385.778,89.222,384.722,89.278,384.667,89.333Z" fill="#f06198"/><path d="M61.333,90.667c-.056.055-.111,1.111.333.667C61.722,91.278,61.778,90.222,61.333,90.667Z" fill="#9fe6e6"/><path d="M130.667,90.333c-.445.445.611.389.666.333C131.778,90.222,130.722,90.278,130.667,90.333Z" fill="#cceef2"/><path d="M381.667,90.333c-.445.444.611.389.666.333C382.778,90.222,381.722,90.278,381.667,90.333Z" fill="#f73179"/><path d="M450,90l1,1Z" fill="#e6a3c2"/><path d="M133.667,91.333c-.445.445.611.389.666.333C134.778,91.222,133.722,91.278,133.667,91.333Z" fill="#aee8e9"/><path d="M377.667,91.333c-.445.444.611.389.666.333C378.778,91.222,377.722,91.278,377.667,91.333Z" fill="#f63c80"/><path d="M450.333,91.667c-.055.056-.111,1.111.334.667C450.722,92.278,450.778,91.222,450.333,91.667Z" fill="#f6377c"/><path d="M373.667,92.333c-.445.444.611.389.666.333C374.778,92.222,373.722,92.278,373.667,92.333Z" fill="#f34b89"/><path d="M141.667,93.333c-.445.445.611.389.666.333C142.778,93.222,141.722,93.278,141.667,93.333Z" fill="#c2edef"/><path d="M369,93l1,1Z" fill="#e897bb"/><path d="M370,93l1,1Z" fill="#f2558f"/><path d="M366,94l1,1Z" fill="#ea87b1"/><path d="M367,94l1,1Z" fill="#f54384"/><path d="M363,95l1,1Z" fill="#ef699d"/><path d="M151.667,96.333c-.445.445.611.389.666.333C152.778,96.222,151.722,96.278,151.667,96.333Z" fill="#bcebed"/><path d="M359,96l1,1Z" fill="#e79dbf"/><path d="M360,96l1,1Z" fill="#f15a93"/><path d="M356,97l1,1Z" fill="#eb7eab"/><path d="M353,98l1,1-1-1m-3,1,1,1-1-1m-3,1,1,1-1-1m-3,1,1,1Z" fill="#eb7fac"/><path d="M341,102l1,1Z" fill="#e98eb5"/><path d="M342,102l1,1Z" fill="#f54384"/><path d="M338,103l1,1Z" fill="#e892b7"/><path d="M336,104l1,1Z" fill="#f06198"/><path d="M333,105l1,1Z" fill="#eb7fac"/><path d="M330,106l1,1Z" fill="#e79dbf"/><path d="M331,106l1,1Z" fill="#f34b89"/><path d="M328,107l1,1Z" fill="#ef699d"/><path d="M325,108l1,1Z" fill="#ec7ba8"/><path d="M323,109l1,1Z" fill="#f15a93"/><path d="M320,110l1,1Z" fill="#e98eb5"/><path d="M318,111l1,1Z" fill="#ef699d"/><path d="M316,112l1,1Z" fill="#f54384"/><path d="M313,113l1,1Z" fill="#eb7fac"/><path d="M311,114l1,1Z" fill="#f15a93"/><path d="M307,116l1,1Z" fill="#f06198"/><path d="M303,120l1,1Z" fill="#ee6da0"/><path d="M302,122l1,1Z" fill="#f2538f"/><path d="M210.333,124.667c-.055.055-.111,1.111.334.666C210.722,125.278,210.778,124.222,210.333,124.667Z" fill="#9ae4e4"/><path d="M301.333,124.667c-.055.055-.111,1.111.334.666C301.722,125.278,301.778,124.222,301.333,124.667Z" fill="#f25691"/><path d="M450,185v3C450.7,186.446,450.7,186.554,450,185Z" fill="#f7327a"/><path d="M449,190l1,1Z" fill="#ef659b"/><path d="M448,192l1,1Z" fill="#ec7daa"/><path d="M447,193l1,1Z" fill="#f54284"/><path d="M444,196l1,1Z" fill="#ed72a3"/><path d="M442,197l1,1Z" fill="#f44888"/><path d="M439.667,198.333c-.445.445.611.389.666.334C440.778,198.222,439.722,198.278,439.667,198.333Z" fill="#ed75a6"/><path d="M431,199a7.087,7.087,0,0,0,3,1A7.092,7.092,0,0,0,431,199Z" fill="#f63b80"/><path d="M434.667,199.333c-.445.445.611.389.666.334C435.778,199.222,434.722,199.278,434.667,199.333Z" fill="#e98db4"/><path d="M423.667,200.333c-.445.445.611.389.666.334C424.778,200.222,423.722,200.278,423.667,200.333Z" fill="#f54384"/><path d="M425,200a7.087,7.087,0,0,0,3,1A7.087,7.087,0,0,0,425,200Z" fill="#ec7aa8"/><path d="M417,201a7.087,7.087,0,0,0,3,1,7.087,7.087,0,0,0-3-1m-6.333,1.333c-.445.445.611.389.666.334C411.778,202.222,410.722,202.278,410.667,202.333Z" fill="#f15a93"/><path d="M412.667,202.333c-.445.445.611.389.666.334C413.778,202.222,412.722,202.278,412.667,202.333Z" fill="#e896bb"/><path d="M404,203a7.087,7.087,0,0,0,3,1A7.087,7.087,0,0,0,404,203Z" fill="#ef689d"/><path d="M398.667,204.333c-.445.445.611.389.666.334C399.778,204.222,398.722,204.278,398.667,204.333Z" fill="#f2528f"/><path d="M400.667,204.333c-.445.445.611.389.666.334C401.778,204.222,400.722,204.278,400.667,204.333Z" fill="#e5a5c4"/><path d="M393.667,205.333c-.445.445.611.389.666.334C394.778,205.222,393.722,205.278,393.667,205.333Z" fill="#ec77a6"/><path d="M388,206a7.087,7.087,0,0,0,3,1,7.087,7.087,0,0,0-3-1m-5,1a7.087,7.087,0,0,0,3,1A7.087,7.087,0,0,0,383,207Z" fill="#ee70a2"/><path d="M378.667,208.333c-.445.445.611.389.666.334C379.778,208.222,378.722,208.278,378.667,208.333Z" fill="#ed71a2"/><path d="M374.667,209.333c-.445.445.611.389.666.334C375.778,209.222,374.722,209.278,374.667,209.333Z" fill="#eb7fac"/><path d="M370.667,210.333c-.445.445.611.389.666.334C371.778,210.222,370.722,210.278,370.667,210.333Z" fill="#e79abc"/><path d="M365.667,211.333c-.445.445.611.389.666.334C366.778,211.222,365.722,211.278,365.667,211.333Z" fill="#ee70a2"/><path d="M361.667,212.333c-.445.445.611.389.666.334C362.778,212.222,361.722,212.278,361.667,212.333Z" fill="#ec7daa"/><path d="M301.333,213.667c-.055.055-.111,1.111.334.666C301.722,214.278,301.778,213.222,301.333,213.667Z" fill="#ea88b1"/><path d="M358.667,213.333c-.445.445.611.389.666.334.445-.445-.611-.389-.666-.334m-4,1c-.445.445.611.389.666.334C355.778,214.222,354.722,214.278,354.667,214.333Z" fill="#e5a5c4"/><path d="M350.667,215.333c-.445.445.611.389.666.334C351.778,215.222,350.722,215.278,350.667,215.333Z" fill="#e79dbf"/><path d="M302,216l1,1Z" fill="#f34f8c"/><path d="M347,216l1,1Z" fill="#eb7fac"/><path d="M343,217l1,1Z" fill="#ef659b"/><path d="M303,218l1,1Z" fill="#ef649a"/><path d="M339,218l1,1Z" fill="#f54284"/><path d="M340,218l1,1Z" fill="#eb83ae"/><path d="M336.667,219.333c-.445.445.611.389.666.334C337.778,219.222,336.722,219.278,336.667,219.333Z" fill="#e896bb"/><path d="M333,220l1,1Z" fill="#ed74a5"/><path d="M330,221l1,1Z" fill="#eb7eab"/><path d="M307,222l1,1Z" fill="#f3508d"/><path d="M326,222l1,1Z" fill="#f54083"/><path d="M327,222l1,1Z" fill="#ea88b1"/><path d="M308,223l1,1Z" fill="#e6a2c3"/><path d="M323,223l1,1Z" fill="#f34b89"/><path d="M324,223l1,1Z" fill="#e892b8"/><path d="M311,224l1,1Z" fill="#f15a93"/><path d="M320,224l1,1Z" fill="#f15892"/><path d="M321,224l1,1Z" fill="#e79cbe"/><path d="M314,225a10.648,10.648,0,0,0,4,1A10.648,10.648,0,0,0,314,225Z" fill="#e5a4c3"/><path d="M337,238a12.241,12.241,0,0,0,5,1A12.241,12.241,0,0,0,337,238Z" fill="#e6d7a0"/><path d="M410,238a10.648,10.648,0,0,0,4,1A10.648,10.648,0,0,0,410,238Z" fill="#e6d6a2"/><path d="M335,239.7a15.02,15.02,0,0,0-9.734,14.3c.282,11.254,7.564,22.117.738,33-4.3,6.852-12.605,10.461-20.005,12.914-7.562,2.508-15.24,4.919-16.656,14.09-1,6.452,3.024,12.646,8.657,15.547,9.424,4.854,20.541,4.973,27.35,14.468,9.9,13.811-6.846,30.98,3.3,43.8,4.078,5.152,11.415,6.438,17.348,3.957,10.758-4.5,17.668-19.748,31-18.431,15.413,1.522,23.745,24.33,40,18.8A14.72,14.72,0,0,0,426.66,377c-1-10.659-7.04-21.835-.665-32,4.361-6.952,12.544-10.353,20.005-12.837,7.516-2.5,15.265-5.158,16.656-14.167.93-6.022-2.514-11.917-7.66-14.911-9.5-5.528-21.318-5.3-28.347-15.1-9.94-13.86,6.862-31.192-3.3-43.8-3.925-4.869-11.631-6.566-17.351-4.1-11.075,4.778-17.956,20.371-32,18.542C359.358,256.725,350.94,234.29,335,239.7Z" fill="#fdbf00"/><path d="M344,239l1,1Z" fill="#f2cb53"/><path d="M416,239l1,1Z" fill="#f1cc58"/><path d="M332,240l1,1Z" fill="#e6d69f"/><path d="M419,240l1,1Z" fill="#e7d69e"/><path d="M331,241l1,1Z" fill="#f2cb4f"/><path d="M348,241l1,1Z" fill="#f3ca4c"/><path d="M403,241l1,1Z" fill="#f3ca4a"/><path d="M420,241l1,1Z" fill="#f2cb4f"/><path d="M327,245l1,1Z" fill="#f0cd61"/><path d="M424,245l1,1Z" fill="#efcd64"/><path d="M326,247l1,1Z" fill="#f2ca4d"/><path d="M425,247l1,1Z" fill="#f2cb51"/><path d="M356,248l1,1Z" fill="#e6d69f"/><path d="M325.333,249.667c-.055.055-.111,1.111.334.666C325.722,250.278,325.778,249.222,325.333,249.667Z" fill="#f2cb4f"/><path d="M357,249l1,1Z" fill="#e9d48f"/><path d="M394,249l1,1Z" fill="#e8d494"/><path d="M426.333,249.667c-.055.055-.111,1.111.334.666C426.722,250.278,426.778,249.222,426.333,249.667Z" fill="#f2cb52"/><path d="M358,250l1,1Z" fill="#edd070"/><path d="M393,250l1,1Z" fill="#eecf6f"/><path d="M392,251l1,1Z" fill="#f3ca49"/><path d="M362,253l1,1Z" fill="#ebd17d"/><path d="M389,253l1,1Z" fill="#e9d38d"/><path d="M365,255l1,1Z" fill="#ecd178"/><path d="M386,255l1,1Z" fill="#ecd076"/><path d="M325.333,256.667c-.055.055-.111,1.111.334.666C325.722,257.278,325.778,256.222,325.333,256.667Z" fill="#ecd179"/><path d="M367,256l1,1Z" fill="#e9d48e"/><path d="M384,256l1,1Z" fill="#e9d38c"/><path d="M426.333,256.667c-.055.055-.111,1.111.334.666C426.722,257.278,426.778,256.222,426.333,256.667Z" fill="#ecd179"/><path d="M369,257l1,1Z" fill="#eece68"/><path d="M382,257l1,1Z" fill="#efce67"/><path d="M372.667,258.333c-.445.445.611.389.666.334C373.778,258.222,372.722,258.278,372.667,258.333Z" fill="#ebd17c"/><path d="M374,258a12.241,12.241,0,0,0,5,1A12.241,12.241,0,0,0,374,258Z" fill="#e5d7a5"/><path d="M326.333,260.667c-.055.055-.111,1.111.334.666C326.722,261.278,326.778,260.222,326.333,260.667Z" fill="#ebd17c"/><path d="M425.333,260.667c-.055.055-.111,1.111.334.666C425.722,261.278,425.778,260.222,425.333,260.667Z" fill="#ebd27f"/><path d="M327.333,264.667c-.055.055-.111,1.111.334.666C327.722,265.278,327.778,264.222,327.333,264.667Z" fill="#efcd63"/><path d="M424.333,264.667c-.055.055-.111,1.111.334.666C424.722,265.278,424.778,264.222,424.333,264.667Z" fill="#efce66"/><path d="M327.333,266.667c-.055.055-.111,1.111.334.666C327.722,267.278,327.778,266.222,327.333,266.667Z" fill="#e2dbc0"/><path d="M424.333,266.667c-.055.055-.111,1.111.334.666C424.722,267.278,424.778,266.222,424.333,266.667Z" fill="#e2dbc2"/><path d="M328,270v10A12.887,12.887,0,0,0,328,270Z" fill="#e9d490"/><path d="M423,270v10A12.887,12.887,0,0,0,423,270Z" fill="#e8d494"/><path d="M61.667,273.333c-.444.445.611.389.667.334C62.778,273.222,61.722,273.278,61.667,273.333Z" fill="#c595b3"/><path d="M63,273a7.091,7.091,0,0,0,3,1A7.091,7.091,0,0,0,63,273Z" fill="#9caabc"/><path d="M61,274v69c0,8.729-2.284,21.193,2.367,28.96,5.681,9.488,21.059,7.968,30.633,9.325,26.885,3.812,54.12,9.53,80,17.8,9.256,2.958,23.1,10.074,31.811,2.495,4.881-4.247,5.179-10.59,5.189-16.581V320c0-3.605,1.26-10.248-1.028-13.3-1.988-2.651-7-3.379-9.972-4.369-8.308-2.769-16.642-5.386-25-7.992-25.226-7.865-51.826-13.181-78-16.623C85.071,276.15,73.052,274.008,61,274Z" fill="#ff5e95"/><path d="M70.667,274.333c-.445.445.611.389.667.334C71.778,274.222,70.722,274.278,70.667,274.333Z" fill="#d87ca5"/><path d="M72,274a7.091,7.091,0,0,0,3,1A7.091,7.091,0,0,0,72,274Z" fill="#b596b2"/><path d="M75.667,274.333c-.445.445.611.389.667.334C76.778,274.222,75.722,274.278,75.667,274.333Z" fill="#84bdc6"/><path d="M80.667,275.333c-.445.445.611.389.667.334C81.778,275.222,80.722,275.278,80.667,275.333Z" fill="#c987aa"/><path d="M82,275a7.091,7.091,0,0,0,3,1A7.091,7.091,0,0,0,82,275Z" fill="#a3a5ba"/><path d="M88,276a7.091,7.091,0,0,0,3,1A7.091,7.091,0,0,0,88,276Z" fill="#cc86a9"/><path d="M91.667,276.333c-.445.445.611.389.667.334C92.778,276.222,91.722,276.278,91.667,276.333Z" fill="#89b9c4"/><path d="M95.667,277.333c-.445.445.611.389.667.334C96.778,277.222,95.722,277.278,95.667,277.333Z" fill="#ce84a9"/><path d="M97,277a7.091,7.091,0,0,0,3,1A7.091,7.091,0,0,0,97,277Z" fill="#a1a7ba"/><path d="M103.667,278.333c-.445.445.611.389.666.334C104.778,278.222,103.722,278.278,103.667,278.333Z" fill="#b09bb5"/><path d="M105.667,278.333c-.445.445.611.389.666.334C106.778,278.222,105.722,278.278,105.667,278.333Z" fill="#80c1c8"/><path d="M109,279a7.087,7.087,0,0,0,3,1A7.092,7.092,0,0,0,109,279Z" fill="#b09bb5"/><path d="M114,280a7.087,7.087,0,0,0,3,1A7.092,7.092,0,0,0,114,280Z" fill="#c38dad"/><path d="M328.333,280.667c-.055.055-.111,1.111.334.666C328.722,281.278,328.778,280.222,328.333,280.667Z" fill="#f5c83e"/><path d="M423.333,280.667c-.055.055-.111,1.111.334.666C423.722,281.278,423.778,280.222,423.333,280.667Z" fill="#f4c941"/><path d="M120.667,281.333c-.445.445.611.389.666.334C121.778,281.222,120.722,281.278,120.667,281.333Z" fill="#ba93b0"/><path d="M125.667,282.333c-.445.445.611.389.666.334C126.778,282.222,125.722,282.278,125.667,282.333Z" fill="#b994b1"/><path d="M130.667,283.333c-.445.445.611.389.666.334C131.778,283.222,130.722,283.278,130.667,283.333Z" fill="#ba93b0"/><path d="M135.667,284.333c-.445.445.611.389.666.334C136.778,284.222,135.722,284.278,135.667,284.333Z" fill="#ab9fb6"/><path d="M327,284l1,1Z" fill="#ecd07a"/><path d="M424,284l1,1Z" fill="#ecd17b"/><path d="M140.667,285.333c-.445.445.611.389.666.334C141.778,285.222,140.722,285.278,140.667,285.333Z" fill="#9bacbd"/><path d="M144.667,286.333c-.445.445.611.389.666.334C145.778,286.222,144.722,286.278,144.667,286.333Z" fill="#a6a3b8"/><path d="M326,286l1,1Z" fill="#e7d69d"/><path d="M425,286l1,1Z" fill="#e7d69e"/><path d="M149.667,287.333c-.445.445.611.389.666.334.445-.445-.611-.389-.666-.334m4,1c-.445.445.611.389.666.334C154.778,288.222,153.722,288.278,153.667,288.333Z" fill="#8ab8c3"/><path d="M325,288l1,1Z" fill="#eece6a"/><path d="M426,288l1,1Z" fill="#eece6c"/><path d="M157.667,289.333c-.445.445.611.389.666.334C158.778,289.222,157.722,289.278,157.667,289.333Z" fill="#84bdc6"/><path d="M324,289l1,1Z" fill="#e6d6a3"/><path d="M161.667,290.333c-.445.445.611.389.666.334C162.778,290.222,161.722,290.278,161.667,290.333Z" fill="#80c1c8"/><path d="M164.667,291.333c-.445.445.611.389.666.334C165.778,291.222,164.722,291.278,164.667,291.333Z" fill="#9caabc"/><path d="M168.667,292.333c-.445.445.611.389.666.334C169.778,292.222,168.722,292.278,168.667,292.333Z" fill="#8ab8c3"/><path d="M321,292l1,1Z" fill="#ebd17d"/><path d="M430,292l1,1Z" fill="#eecf6e"/><path d="M175.667,294.333c-.445.445.611.389.666.334C176.778,294.222,175.722,294.278,175.667,294.333Z" fill="#87bbc4"/><path d="M318,294l1,1Z" fill="#ead285"/><path d="M433,294l1,1Z" fill="#edd075"/><path d="M178.667,295.333c-.445.445.611.389.666.334C179.778,295.222,178.722,295.278,178.667,295.333Z" fill="#9bacbd"/><path d="M316,295l1,1Z" fill="#e7d599"/><path d="M435,295l1,1Z" fill="#e7d59a"/><path d="M314,296l1,1Z" fill="#e7d69d"/><path d="M437,296l1,1Z" fill="#e9d38d"/><path d="M185.667,297.333c-.445.445.611.389.666.334C186.778,297.222,185.722,297.278,185.667,297.333Z" fill="#85bcc5"/><path d="M312,297l1,1Z" fill="#ebd17d"/><path d="M439,297l1,1Z" fill="#eecf6e"/><path d="M188.667,298.333c-.445.445.611.389.666.334C189.778,298.222,188.722,298.278,188.667,298.333Z" fill="#90b3c1"/><path d="M309,298l1,1Z" fill="#e6d69f"/><path d="M191.667,299.333c-.445.445.611.389.666.334C192.778,299.222,191.722,299.278,191.667,299.333Z" fill="#8eb5c1"/><path d="M307,299l1,1Z" fill="#f1cb56"/><path d="M445,299l1,1Z" fill="#e8d494"/><path d="M194.667,300.333c-.445.445.611.389.666.334C195.778,300.222,194.722,300.278,194.667,300.333Z" fill="#90b3c1"/><path d="M303.667,300.333c-.445.445.611.389.666.334C304.778,300.222,303.722,300.278,303.667,300.333Z" fill="#f4c945"/><path d="M447.667,300.333c-.445.445.611.389.666.334C448.778,300.222,447.722,300.278,447.667,300.333Z" fill="#ead387"/><path d="M197.667,301.333c-.445.445.611.389.666.334C198.778,301.222,197.722,301.278,197.667,301.333Z" fill="#90b3c1"/><path d="M451,301l1,1Z" fill="#efce62"/><path d="M200.667,302.333c-.445.445.611.389.666.334C201.778,302.222,200.722,302.278,200.667,302.333Z" fill="#8cb7c3"/><path d="M297,302l1,1Z" fill="#ecd178"/><path d="M454,302l1,1Z" fill="#ecd07a"/><path d="M203,303l1,1Z" fill="#bf8fae"/><path d="M295,303l1,1Z" fill="#e7d69d"/><path d="M456,303l1,1Z" fill="#e6d69f"/><path d="M206,304l1,1Z" fill="#b597b2"/><path d="M294,304l1,1Z" fill="#eecf6e"/><path d="M457,304l1,1Z" fill="#f0cd5e"/><path d="M209,305l1,1Z" fill="#afa0b9"/><path d="M293,305l1,1Z" fill="#f1cc57"/><path d="M458,305l1,1Z" fill="#f2cb52"/><path d="M292,306l1,1Z" fill="#efce65"/><path d="M459,306l1,1Z" fill="#efce67"/><path d="M460,307l1,1Z" fill="#e6d6a1"/><path d="M290,309l1,1Z" fill="#ecd07b"/><path d="M461,309l1,1Z" fill="#ebd17d"/><path d="M289.333,311.667c-.055.055-.111,1.111.334.666C289.722,312.278,289.778,311.222,289.333,311.667Z" fill="#eecf6d"/><path d="M462.333,311.667c-.055.055-.111,1.111.334.666C462.722,312.278,462.778,311.222,462.333,311.667Z" fill="#edcf70"/><path d="M289.333,319.667c-.055.055-.111,1.111.334.666C289.722,320.278,289.778,319.222,289.333,319.667Z" fill="#e5d7aa"/><path d="M462.333,319.667c-.055.055-.111,1.111.334.666C462.722,320.278,462.778,319.222,462.333,319.667Z" fill="#e4d8ac"/><path d="M290,322l1,1Z" fill="#ebd17c"/><path d="M461,322l1,1Z" fill="#ebd27f"/><path d="M460,324l1,1Z" fill="#e6d6a2"/><path d="M292,325l1,1Z" fill="#efce67"/><path d="M459,325l1,1Z" fill="#eece68"/><path d="M293,326l1,1Z" fill="#f1cc58"/><path d="M458,326l1,1Z" fill="#f2cb54"/><path d="M294,327l1,1Z" fill="#eecf6e"/><path d="M457,327l1,1Z" fill="#efce65"/><path d="M295,328l1,1Z" fill="#e6d69f"/><path d="M456,328l1,1Z" fill="#e6d7a0"/><path d="M297,329l1,1Z" fill="#ecd07a"/><path d="M454,329l1,1Z" fill="#ecd17b"/><path d="M451,330l1,1Z" fill="#efce62"/><path d="M303.667,331.333c-.445.445.611.389.666.334C304.778,331.222,303.722,331.278,303.667,331.333Z" fill="#f3c947"/><path d="M447.667,331.333c-.445.445.611.389.666.334C448.778,331.222,447.722,331.278,447.667,331.333Z" fill="#ead388"/><path d="M307,332l1,1Z" fill="#f1cb56"/><path d="M445,332l1,1Z" fill="#e8d494"/><path d="M309,333l1,1Z" fill="#e6d7a0"/><path d="M441,333l1,1Z" fill="#f3ca48"/><path d="M312,334l1,1Z" fill="#ebd17d"/><path d="M439,334l1,1Z" fill="#eecf6e"/><path d="M314,335l1,1Z" fill="#e7d69d"/><path d="M437,335l1,1Z" fill="#e9d38d"/><path d="M316,336l1,1-1-1m119,0,1,1Z" fill="#e7d59a"/><path d="M318,337l1,1Z" fill="#ead285"/><path d="M433,337l1,1Z" fill="#edd075"/><path d="M321,339l1,1Z" fill="#ebd17d"/><path d="M430,339l1,1Z" fill="#eecf6e"/><path d="M325,343l1,1Z" fill="#eece6c"/><path d="M426,343l1,1Z" fill="#eecf6d"/><path d="M326,345l1,1Z" fill="#e7d69e"/><path d="M425,345l1,1Z" fill="#e6d69f"/><path d="M327.333,347.667c-.055.055-.111,1.111.334.666C327.722,348.278,327.778,347.222,327.333,347.667Z" fill="#e3dabc"/><path d="M424.333,347.667c-.055.055-.111,1.111.334.666C424.722,348.278,424.778,347.222,424.333,347.667Z" fill="#e3dbbf"/><path d="M328.333,350.667c-.055.055-.111,1.111.334.666C328.722,351.278,328.778,350.222,328.333,350.667Z" fill="#f0cd5e"/><path d="M423.333,350.667c-.055.055-.111,1.111.334.666C423.722,351.278,423.778,350.222,423.333,350.667Z" fill="#efce62"/><path d="M328,352v6a6.666,6.666,0,0,0,0-6m95,0v6A6.666,6.666,0,0,0,423,352Z" fill="#e7d69e"/><path d="M328,358v3C328.7,359.446,328.7,359.554,328,358Z" fill="#eecf6f"/><path d="M423,358v3C423.7,359.446,423.7,359.554,423,358Z" fill="#edcf72"/><path d="M327.333,365.667c-.055.055-.111,1.111.334.666C327.722,366.278,327.778,365.222,327.333,365.667Z" fill="#f0cd61"/><path d="M424.333,365.667c-.055.055-.111,1.111.334.666C424.722,366.278,424.778,365.222,424.333,365.667Z" fill="#efce65"/><path d="M62,370l1,1Z" fill="#f9a1c3"/><path d="M326.333,370.667c-.055.055-.111,1.111.334.666C326.722,371.278,326.778,370.222,326.333,370.667Z" fill="#f5c840"/><path d="M425.333,370.667c-.055.055-.111,1.111.334.666C425.722,371.278,425.778,370.222,425.333,370.667Z" fill="#f4c942"/><path d="M63,372l1,1Z" fill="#f8b1cd"/><path d="M325.333,373.667c-.055.055-.111,1.111.334.666C325.722,374.278,325.778,373.222,325.333,373.667Z" fill="#ecd178"/><path d="M372.667,373.333c-.445.445.611.389.666.334C373.778,373.222,372.722,373.278,372.667,373.333Z" fill="#ebd17e"/><path d="M374,373a12.241,12.241,0,0,0,5,1A12.241,12.241,0,0,0,374,373Z" fill="#e5d7a5"/><path d="M369,374l1,1Z" fill="#eece6b"/><path d="M382,374l1,1Z" fill="#eecf69"/><path d="M426.333,374.667c-.055.055-.111,1.111.334.666C426.722,375.278,426.778,374.222,426.333,374.667Z" fill="#f3ca4c"/><path d="M367,375l1,1Z" fill="#e8d491"/><path d="M384,375l1,1Z" fill="#e9d490"/><path d="M67,376l1,1Z" fill="#f9aac9"/><path d="M365,376l1,1Z" fill="#ecd07b"/><path d="M386,376l1,1Z" fill="#ecd179"/><path d="M71.667,378.333c-.445.445.611.389.667.334C72.778,378.222,71.722,378.278,71.667,378.333Z" fill="#fb88b1"/><path d="M362,378l1,1Z" fill="#ead285"/><path d="M389,378l1,1Z" fill="#e9d38d"/><path d="M74,379a7.091,7.091,0,0,0,3,1A7.091,7.091,0,0,0,74,379Z" fill="#f5d0e2"/><path d="M77.667,379.333c-.445.445.611.389.667.334C78.778,379.222,77.722,379.278,77.667,379.333Z" fill="#fa98bc"/><path d="M83.667,380.333c-.445.445.611.389.667.334C84.778,380.222,83.722,380.278,83.667,380.333Z" fill="#f6c2d9"/><path d="M85,380a7.091,7.091,0,0,0,3,1A7.091,7.091,0,0,0,85,380Z" fill="#fa9ec0"/><path d="M325,380v3C325.7,381.446,325.7,381.554,325,380Z" fill="#f2cb4f"/><path d="M392,380l1,1Z" fill="#f3ca4a"/><path d="M91.667,381.333c-.445.445.611.389.667.334C92.778,381.222,91.722,381.278,91.667,381.333Z" fill="#f7bed6"/><path d="M93,381a7.091,7.091,0,0,0,3,1A7.091,7.091,0,0,0,93,381Z" fill="#fb91b7"/><path d="M358,381l1,1Z" fill="#edcf72"/><path d="M393,381l1,1Z" fill="#edd071"/><path d="M426.333,381.667c-.055.055-.111,1.111.334.666C426.722,382.278,426.778,381.222,426.333,381.667Z" fill="#e8d493"/><path d="M98,382a7.091,7.091,0,0,0,3,1A7.091,7.091,0,0,0,98,382Z" fill="#f7bad3"/><path d="M357,382l1,1Z" fill="#e9d490"/><path d="M394,382l1,1Z" fill="#e8d595"/><path d="M104,383a7.087,7.087,0,0,0,3,1,7.087,7.087,0,0,0-3-1m6.667,1.333c-.445.445.611.389.666.334C111.778,384.222,110.722,384.278,110.667,384.333Z" fill="#f7bed6"/><path d="M112.667,384.333c-.445.445.611.389.666.334C113.778,384.222,112.722,384.278,112.667,384.333Z" fill="#fc87b0"/><path d="M326,384l1,1Z" fill="#f2ca4e"/><path d="M425,384l1,1Z" fill="#f2cb52"/><path d="M116,385a7.087,7.087,0,0,0,3,1A7.087,7.087,0,0,0,116,385Z" fill="#f8aecb"/><path d="M121,386a7.087,7.087,0,0,0,3,1A7.087,7.087,0,0,0,121,386Z" fill="#f8b4cf"/><path d="M327,386l1,1Z" fill="#efcd63"/><path d="M424,386l1,1Z" fill="#efce65"/><path d="M126,387a7.087,7.087,0,0,0,3,1A7.087,7.087,0,0,0,126,387Z" fill="#f8b4cf"/><path d="M131,388a7.088,7.088,0,0,0,3,1A7.088,7.088,0,0,0,131,388Z" fill="#f8aac8"/><path d="M136.667,389.333c-.445.445.611.389.666.334C137.778,389.222,136.722,389.278,136.667,389.333Z" fill="#fa9abe"/><path d="M140.667,390.333c-.445.445.611.389.666.334C141.778,390.222,140.722,390.278,140.667,390.333Z" fill="#f9a2c3"/><path d="M331,390l1,1Z" fill="#f2cb50"/><path d="M348,390l1,1Z" fill="#f2ca4d"/><path d="M403,390l1,1Z" fill="#f3ca4c"/><path d="M420,390l1,1Z" fill="#f2cb50"/><path d="M145.667,391.333c-.445.445.611.389.666.334C146.778,391.222,145.722,391.278,145.667,391.333Z" fill="#fb91b7"/><path d="M332,391l1,1-1-1m87,0,1,1Z" fill="#e6d69f"/><path d="M149.667,392.333c-.445.445.611.389.666.334C150.778,392.222,149.722,392.278,149.667,392.333Z" fill="#fb8bb4"/><path d="M344,392l1,1Z" fill="#f1cc58"/><path d="M416,392l1,1Z" fill="#f1cc59"/><path d="M153.667,393.333c-.445.445.611.389.666.334C154.778,393.222,153.722,393.278,153.667,393.333Z" fill="#fc87b0"/><path d="M210.333,393.667c-.055.055-.111,1.111.334.666C210.722,394.278,210.778,393.222,210.333,393.667Z" fill="#f7bcd5"/><path d="M338,393a10.648,10.648,0,0,0,4,1A10.648,10.648,0,0,0,338,393Z" fill="#e6d7a0"/><path d="M410,393a10.648,10.648,0,0,0,4,1A10.648,10.648,0,0,0,410,393Z" fill="#e5d7a5"/><path d="M156.667,394.333c-.445.445.611.389.666.334C157.778,394.222,156.722,394.278,156.667,394.333Z" fill="#f8afcc"/><path d="M160.667,395.333c-.445.445.611.389.666.334C161.778,395.222,160.722,395.278,160.667,395.333Z" fill="#f9a0c2"/><path d="M164.667,396.333c-.445.445.611.389.666.334C165.778,396.222,164.722,396.278,164.667,396.333Z" fill="#fb91b7"/><path d="M171.667,398.333c-.445.445.611.389.666.334C172.778,398.222,171.722,398.278,171.667,398.333Z" fill="#fb8ab3"/><path d="M208,398l1,1Z" fill="#f9a4c5"/><path d="M174.667,399.333c-.445.445.611.389.666.334C175.778,399.222,174.722,399.278,174.667,399.333Z" fill="#f9a5c5"/><path d="M181.667,401.333c-.445.445.611.389.666.334C182.778,401.222,181.722,401.278,181.667,401.333Z" fill="#fc83ae"/><path d="M184.667,402.333c-.445.445.611.389.666.334C185.778,402.222,184.722,402.278,184.667,402.333Z" fill="#fb89b2"/><path d="M187.667,403.333c-.445.445.611.389.666.334C188.778,403.222,187.722,403.278,187.667,403.333Z" fill="#fb91b7"/><path d="M200.667,404.333c-.445.445.611.389.666.334C201.778,404.222,200.722,404.278,200.667,404.333Z" fill="#f5d1e3"/><path d="M194,405a10.648,10.648,0,0,0,4,1A10.648,10.648,0,0,0,194,405Z" fill="#f5cde1"/></g></svg>